<svg xmlns="http://www.w3.org/2000/svg" viewBox="0 0 32 32" id="disguise-mask">
  <circle cx="9" cy="12" r="5" fill="none" stroke="#000" stroke-linecap="round" stroke-linejoin="round" stroke-miterlimit="10" stroke-width="2"/>
  <circle cx="23" cy="12" r="5" fill="none" stroke="#000" stroke-linecap="round" stroke-linejoin="round" stroke-miterlimit="10" stroke-width="2"/>
  <path fill="none" stroke="#000" stroke-linecap="round" stroke-linejoin="round" stroke-miterlimit="10" stroke-width="2" d="M14 11.5c0-1.5 4-1.5 4 0 0 5.106 2.862 6.455 1.731 8.457-.49.869-1.866 2.043-3.732 2.043s-3.209-1.197-3.732-2.043C11.061 18.008 14 15.585 14 11.5z"/>
  <path fill="none" stroke="#000" stroke-linecap="round" stroke-linejoin="round" stroke-miterlimit="10" stroke-width="2" d="M18.59 21.14C22 22 21 24.08 25 25c-3.918 3.282-7 2-9 0-2 2-5.082 3.282-9 0 4-.92 3-3 6.41-3.86M19 4.5c3.5-2.604 7.812-1.461 10 1.209M13 4.5C9.5 1.896 5.188 3.039 3 5.708M4 12H2M30 12h-2"/>
</svg>