<svg xmlns="http://www.w3.org/2000/svg" width="511pt" height="511pt" viewBox="1 0 511.997 511" id="magic-wand">
  <g>
    <path d="M 434.800781 150.863281 L 472.339844 40.164062 L 361.640625 77.703125 L 267.960938 7.792969 L 269.453125 124.675781 L 174.015625 192.167969 L 237.078125 211.769531 L 13.15625 435.230469 C -4.386719 452.769531 -4.386719 481.308594 13.15625 498.847656 C 30.679688 516.375 59.21875 516.402344 76.761719 498.859375 L 300.714844 275.371094 L 320.335938 338.488281 L 387.828125 243.050781 L 504.710938 244.546875 Z M 55.566406 477.640625 C 49.71875 483.488281 40.207031 483.488281 34.359375 477.640625 C 28.515625 471.796875 28.515625 462.28125 34.351562 456.445312 L 130.136719 360.855469 L 151.34375 382.0625 Z M 172.574219 360.878906 L 151.367188 339.675781 L 269.453125 221.832031 L 285.636719 226.867188 L 290.664062 243.03125 Z M 372.449219 212.863281 L 330.9375 271.558594 L 309.597656 202.910156 L 240.945312 181.566406 L 299.644531 140.058594 L 298.722656 68.171875 L 356.339844 111.167969 L 424.425781 88.082031 L 401.335938 156.164062 L 444.332031 213.78125 Z M 372.449219 212.863281 "/>
    <path d="M469.585938 148.949219L490.792969 127.742188 511.996094 148.949219 490.792969 170.15625zM448.386719 297.390625L427.179688 318.597656 405.976562 297.390625 427.179688 276.183594zM363.558594.5L384.765625 21.703125 363.558594 42.910156 342.351562 21.703125zM193.90625 85.335938L215.113281 64.128906 236.320312 85.335938 215.113281 106.539062zM193.90625 85.335938"/>
  </g>
</svg>